<svg width="128" height="128" viewBox="0 0 128 128" xmlns="http://www.w3.org/2000/svg">
  <defs>
    <linearGradient id="grad1" x1="0%" y1="0%" x2="100%" y2="100%">
      <stop offset="0%" style="stop-color:#e74c3c;stop-opacity:1" />
      <stop offset="100%" style="stop-color:#c0392b;stop-opacity:1" />
    </linearGradient>
  </defs>
  
  <!-- Background circle -->
  <circle cx="64" cy="64" r="60" fill="url(#grad1)" stroke="#fff" stroke-width="4"/>
  
  <!-- Document icon -->
  <rect x="32" y="24" width="64" height="80" rx="4" fill="#fff" opacity="0.9"/>
  
  <!-- Lines representing text -->
  <rect x="40" y="36" width="48" height="3" rx="1.5" fill="#e74c3c"/>
  <rect x="40" y="44" width="40" height="3" rx="1.5" fill="#e74c3c"/>
  <rect x="40" y="52" width="44" height="3" rx="1.5" fill="#e74c3c"/>
  <rect x="40" y="60" width="36" height="3" rx="1.5" fill="#e74c3c"/>
  <rect x="40" y="68" width="42" height="3" rx="1.5" fill="#e74c3c"/>
  <rect x="40" y="76" width="38" height="3" rx="1.5" fill="#e74c3c"/>
  <rect x="40" y="84" width="46" height="3" rx="1.5" fill="#e74c3c"/>
  <rect x="40" y="92" width="34" height="3" rx="1.5" fill="#e74c3c"/>
  
  <!-- Warning triangle -->
  <polygon points="64,100 56,112 72,112" fill="#fff" opacity="0.9"/>
  <polygon points="64,104 58,114 70,114" fill="#e74c3c"/>
  
  <!-- Exclamation mark -->
  <circle cx="64" cy="108" r="2" fill="#fff"/>
  <rect x="63" y="102" width="2" height="6" fill="#fff" rx="1"/>
</svg> 